<svg xmlns="http://www.w3.org/2000/svg" viewBox="0 0 111.1 20.9">
<path fill="#E60013" d="M95.9 6.1c0 .2 0 .4.1.6.4.9 1.3 1.5 2.5 1 .3-.1 8.3-3.3 8.3-3.3s-3.1 8-3.3 8.3c-.5 1.1.1 2.2 1 2.5.2.1.4.1.6.1.8 0 1.4-.5 1.8-1.3.1-.1 4-10.9 4.1-11.2 0-.2.1-.5.1-.8 0-.5-.2-1-.6-1.4-.4-.4-.9-.6-1.4-.6-.3 0-.5 0-.8.1-.1.1-10.2 3.9-11.1 4.2-.9.3-1.3 1-1.3 1.8"/>
<path fill="#4A4F55" d="M6.1 20.7l-.6-1.9H2.3l-.6 1.9H0l3-9h1.8l3 9H6.1zm-2.2-7l-1.1 3.7h2.3l-1.2-3.7zM14.5 19.5c-.6 1.1-1.7 1.4-2.9 1.4-1.5 0-2.9-.6-3.4-2.2-.1-.3-.1-.7-.1-1h1.7c0 .2.1.5.2.7.3.7.9 1 1.7 1 .6 0 1.4-.2 1.4-1 0-.2 0-.3-.1-.4-.2-.4-.9-.6-1.3-.8-.8-.3-1.7-.7-2.4-1.2-.6-.5-.9-1.1-.9-1.9 0-1.7 1.5-2.6 3.1-2.6 1.1 0 2.3.5 2.8 1.6.2.4.2.8.3 1.2h-1.7c0-.8-.7-1.3-1.5-1.3-.6 0-1.3.3-1.3 1 0 .6.8.9 1.3 1.1.8.3 1.8.6 2.5 1.1.7.5.9 1.1.9 1.9 0 .5-.1 1-.3 1.4M16 11.7h1.7v9H16zM24.7 20.7l-.6-1.9h-3.2l-.6 1.9h-1.8l3-9h1.8l3.1 9h-1.7zm-2.2-7l-1.1 3.7h2.3l-1.2-3.7zM32.5 20.7l-3.8-6.3v6.3h-1.6v-9h1.8l3.7 6.3v-6.3h1.6v9zM40.9 20.7l-.6-1.9h-3.2l-.6 1.9h-1.8l3-9h1.8l3.1 9h-1.7zm-2.1-7l-1.1 3.7H40l-1.2-3.7zM52.8 20.7l-.6-1.9H49l-.6 1.9h-1.8l3-9h1.8l3 9h-1.6zm-2.2-7l-1.1 3.7h2.3l-1.2-3.7zM55.5 11.7h1.7v9h-1.7zM63.6 20.7l-1.8-3.4h-1.2v3.4h-1.7v-9h2.4c.7 0 1.5 0 2.2.2 1.1.4 1.7 1.3 1.7 2.5 0 1.1-.5 2-1.6 2.5l2.1 3.7h-2.1zm-.9-7.3c-.4-.2-.9-.2-1.3-.2h-.8v2.6h1.1c.9 0 1.7-.3 1.7-1.3 0-.5-.3-.9-.7-1.1M66.5 20.7v-9h1.7v7.5h3.9v1.5zM73.1 11.7h1.7v9h-1.7zM81.8 20.7l-3.7-6.3v6.3h-1.7v-9h1.9l3.6 6.3v-6.3h1.6v9zM85.1 20.7v-9h5.6v1.5h-3.9v2.1h3.6v1.5h-3.6v2.4h4.1v1.5zM97.8 19.5c-.6 1.1-1.7 1.4-2.9 1.4-1.5 0-2.9-.6-3.4-2.2-.1-.3-.1-.7-.1-1h1.7c0 .2.1.5.2.7.3.7 1 1 1.7 1 .6 0 1.4-.2 1.4-1 0-.2-.1-.3-.1-.4-.2-.4-.9-.7-1.3-.8-.8-.3-1.7-.7-2.4-1.2-.6-.5-.9-1.1-.9-1.9 0-1.7 1.5-2.6 3.1-2.6 1.1 0 2.3.5 2.8 1.6.2.4.2.8.3 1.2h-1.7c0-.8-.7-1.3-1.5-1.3-.6 0-1.3.3-1.3 1 0 .6.8.9 1.3 1.1.8.3 1.8.6 2.5 1.1.7.5.9 1.1.9 1.9 0 .5-.1 1-.3 1.4"/>
</svg>