
<svg xmlns="http://www.w3.org/2000/svg" width="967.18774mm" height="300mm" viewBox="0 0 967.18776 300" version="1.1" id="svg8">
  <defs id="defs2">
    <clipPath clipPathUnits="userSpaceOnUse" id="clipPath26">
      <path d="M 0,841.89 H 595.28 V 0 H 0 Z" id="path24"></path>
    </clipPath>
    <clipPath clipPathUnits="userSpaceOnUse" id="clipPath328">
      <path d="m 332.343,748.607 c -0.204,0 -0.371,-0.165 -0.371,-0.37 v 0 -19.608 c 0,-0.203 0.167,-0.368 0.371,-0.368 v 0 h 18.28 c 0.204,0 0.37,0.165 0.37,0.368 v 0 19.608 c 0,0.205 -0.166,0.37 -0.37,0.37 v 0 z" id="path326"></path>
    </clipPath>
    <clipPath clipPathUnits="userSpaceOnUse" id="clipPath10592">
      <path d="M 0,841.89 H 595.28 V 0 H 0 Z" id="path10590"></path>
    </clipPath>
    <clipPath clipPathUnits="userSpaceOnUse" id="clipPath10712">
      <path d="m 64.817,691.897 c -1.574,-0.771 -3.143,-2.069 -4.195,-4.242 v 0 c -0.301,-0.622 -0.56,-1.316 -0.765,-2.09 v 0 c -0.338,-1.279 -0.677,-2.559 -1.016,-3.837 v 0 c 0,0 -0.52,-2.791 -2.014,-3.407 v 0 c 0,0 -1.373,-0.473 -2.699,0.758 v 0 c -0.745,0.604 -2.026,1.291 -2.973,0.775 v 0 c -0.302,-0.166 -1.044,-0.725 -1.536,-2.398 v 0 c 0,0 1.262,0.851 2.49,-0.126 v 0 c 0,0 1.01,-0.757 1.86,-2.365 v 0 c 0.227,-0.429 0.531,-0.945 0.923,-1.478 v 0 c 1.077,-1.465 2.827,-3.061 5.51,-3.315 v 0 c 2.728,-0.259 4.614,1.502 5.396,2.411 v 0 c 0.266,0.31 0.404,0.522 0.404,0.522 v 0 c 0,0 -0.179,0.162 -0.442,0.486 v 0 c -1.13,1.39 -3.811,5.769 -0.629,13.244 v 0 c 0,0 2.27,4.635 5.249,6.149 v 0 c 0,0 -0.049,0.004 -0.141,0.009 v 0 c -0.108,0.006 -0.275,0.012 -0.488,0.012 v 0 c -0.98,0 -2.96,-0.14 -4.934,-1.108" id="path10710"></path>
    </clipPath>
    <clipPath clipPathUnits="userSpaceOnUse" id="clipPath10726">
      <path d="m 70.333,687.262 c -0.521,-1.766 -1.04,-3.533 -1.56,-5.298 v 0 c 0,0 -0.568,-2.46 -1.987,-2.553 v 0 c -1.418,-0.096 -2.175,0.71 -2.175,0.71 v 0 c 0,0 -1.655,2.221 -3.074,1.086 v 0 c -0.399,-0.318 -0.674,-0.644 -0.85,-0.947 v 0 c -0.447,-0.774 -0.241,-1.39 0.235,-1.323 v 0 c 0.662,0.095 1.655,0.284 2.459,-0.473 v 0 c 0.804,-0.756 2.317,-2.222 2.979,-4.019 v 0 c 0,0 0.094,-0.709 0.847,-0.529 v 0 c 0.753,0.179 4.331,0.326 6.768,-1.741 v 0 c 0,0 1.666,-1.573 5.132,-1.973 v 0 c 1.454,-0.168 3.223,-0.129 5.319,0.318 v 0 c 0,0 -5.65,0.668 -8.623,4.673 v 0 c -0.901,1.216 -1.558,2.738 -1.734,4.643 v 0 c 0,0 -1.04,9.505 6.669,14.377 v 0 c 0,0 -0.217,0.036 -0.591,0.057 v 0 c -0.154,0.008 -0.334,0.014 -0.537,0.014 v 0 c -2.241,0 -7.219,-0.741 -9.277,-7.022" id="path10724"></path>
    </clipPath>
    <clipPath clipPathUnits="userSpaceOnUse" id="clipPath10740">
      <path d="M 0,841.89 H 595.28 V 0 H 0 Z" id="path10738"></path>
    </clipPath>
  </defs>
  
  
  <g id="layer1" transform="translate(-337.78447,134.68822)">
    <g id="g7069" style="fill:#1e409a;fill-opacity:1;stroke:none">
      <g id="g11742" transform="matrix(10.987985,0,0,-10.987985,1304.9722,-84.294312)" style="fill:#1e409a;fill-opacity:1;stroke:none">
        <path d="m 0,0 c -0.136,-0.246 -0.242,-0.516 -0.414,-0.733 -2.419,-3.064 -5.57,-4.804 -9.456,-5.227 -3.679,-0.402 -7.227,0.257 -10.713,1.341 -2.981,0.927 -5.93,1.979 -9.008,2.534 -7.17,1.293 -13.118,-0.911 -17.883,-6.39 -0.13,-0.149 -0.253,-0.306 -0.38,-0.459 -0.007,-0.008 -0.023,-0.009 -0.124,-0.049 1.427,2.732 3.435,4.832 5.97,6.568 -0.302,0.074 -0.524,0.125 -0.745,0.185 -1.706,0.457 -3.142,1.428 -4.587,2.391 -1.165,0.776 -2.318,1.595 -3.566,2.214 -1.57,0.778 -3.263,0.961 -4.981,0.429 -0.176,-0.054 -0.344,-0.135 -0.511,-0.214 -0.082,-0.039 -0.151,-0.101 -0.241,-0.163 0.054,-0.047 0.086,-0.091 0.131,-0.114 1.933,-0.981 3.132,-2.59 3.924,-4.557 0.721,-1.792 1.001,-3.665 1.097,-5.633 -0.072,0.053 -0.117,0.07 -0.138,0.103 -1.466,2.344 -3.656,3.628 -6.287,4.212 -3.147,0.701 -6.269,0.404 -9.346,-0.43 -1.479,-0.401 -2.917,-0.952 -4.391,-1.376 -2.654,-0.762 -5.344,-1.067 -8.076,-0.415 -1.252,0.298 -2.404,0.816 -3.402,1.639 -0.267,0.221 -0.479,0.51 -0.717,0.768 0.027,0.036 0.053,0.072 0.081,0.109 0.165,-0.078 0.338,-0.143 0.494,-0.236 1.877,-1.118 3.916,-1.461 6.068,-1.302 2.523,0.187 4.889,0.996 7.258,1.8 1.666,0.566 3.333,1.125 5.09,1.356 3.324,0.436 6.459,-0.131 9.388,-1.762 0.77,-0.428 1.485,-0.955 2.227,-1.438 -0.007,-0.011 0.022,0.015 0.018,0.027 -0.679,1.791 -1.502,3.501 -2.834,4.916 -1.308,1.388 -2.932,2.153 -4.81,2.373 -0.718,0.084 -1.447,0.074 -2.171,0.111 -0.11,0.006 -0.218,0.042 -0.328,0.064 0.038,0.117 0.044,0.264 0.12,0.347 0.65,0.711 1.433,1.058 2.416,0.869 0.506,-0.098 1.019,-0.159 1.53,-0.238 0.572,-0.09 1.111,-0.011 1.673,0.165 0.968,0.302 1.957,0.575 2.958,0.725 1.737,0.26 3.377,-0.159 4.878,-1.039 1.082,-0.635 2.122,-1.346 3.164,-2.048 1.573,-1.06 3.215,-1.935 5.134,-2.19 1.159,-0.155 2.299,-0.108 3.415,0.237 4.682,1.445 9.284,1.198 13.843,-0.557 2.319,-0.894 4.654,-1.758 7.015,-2.531 2.384,-0.78 4.846,-1.116 7.363,-0.88 3.171,0.298 5.925,1.593 8.403,3.539 0.443,0.348 0.876,0.708 1.314,1.062 C -0.091,0.068 -0.046,0.034 0,0" style="fill:#1e409a;fill-opacity:1;fill-rule:nonzero;stroke:none" id="path11744"></path>
      </g>
      <g id="g11746" transform="matrix(10.987985,0,0,-10.987985,1219.6648,162.39801)" style="fill:#1e409a;fill-opacity:1;stroke:none">
        <path d="m 0,0 h -3.083 v 11.967 h 0.727 c 0.675,0 1.351,-0.012 2.025,0.006 0.273,0.008 0.422,-0.088 0.564,-0.32 C 1.599,9.432 2.978,7.22 4.354,5.006 4.415,4.908 4.481,4.812 4.629,4.724 c 0.01,0.146 0.028,0.293 0.028,0.439 0.002,2.078 0.001,4.157 0.001,6.236 0,0.568 10e-4,0.568 0.587,0.568 H 7.27 7.714 V -0.02 C 6.75,-0.02 5.812,-0.032 4.876,-0.006 4.754,-0.001 4.605,0.178 4.523,0.31 3.127,2.527 1.739,4.75 0.35,6.971 0.259,7.117 0.16,7.256 0,7.499 0,4.944 0,2.498 0,0" style="fill:#1e409a;fill-opacity:1;fill-rule:nonzero;stroke:none" id="path11748"></path>
      </g>
      <g id="g11750" transform="matrix(10.987985,0,0,-10.987985,684.47855,81.6352)" style="fill:#1e409a;fill-opacity:1;stroke:none">
        <path d="M 0,0 C 0.762,0.063 1.478,0.074 2.173,0.197 2.67,0.286 2.916,0.707 2.914,1.195 2.912,1.708 2.657,2.116 2.135,2.202 1.442,2.315 0.732,2.323 0,2.377 Z M 1.113,-2.255 C 1.111,-2.269 1.109,-2.283 1.108,-2.297 c -0.251,0 -0.504,-0.013 -0.754,0.004 -0.266,0.015 -0.379,-0.071 -0.373,-0.357 0.016,-0.701 0.015,-1.402 0,-2.101 -0.005,-0.284 0.109,-0.37 0.376,-0.361 0.449,0.014 0.902,-0.03 1.346,0.016 0.414,0.044 0.848,0.111 1.219,0.284 0.58,0.27 0.626,0.835 0.567,1.4 -0.053,0.513 -0.336,0.867 -0.849,0.97 -0.501,0.1 -1.018,0.127 -1.527,0.187 m 3.292,1.408 C 4.575,-0.932 4.677,-0.987 4.782,-1.036 7.189,-2.135 6.939,-5.059 5.477,-6.29 4.611,-7.019 3.588,-7.303 2.502,-7.333 0.729,-7.381 -1.043,-7.358 -2.817,-7.376 c -0.355,-0.003 -0.284,0.234 -0.284,0.433 -0.003,2.606 -0.002,5.214 -0.002,7.821 0,1.125 0.001,2.25 0,3.375 0,0.188 -0.022,0.372 0.27,0.367 C -0.969,4.583 0.898,4.602 2.76,4.508 3.768,4.458 4.698,4.079 5.35,3.229 6.333,1.943 6.024,0.185 4.668,-0.682 4.603,-0.724 4.536,-0.764 4.405,-0.847" style="fill:#1e409a;fill-opacity:1;fill-rule:nonzero;stroke:none" id="path11752"></path>
      </g>
      <g id="g11754" transform="matrix(10.987985,0,0,-10.987985,777.41489,31.186017)" style="fill:#1e409a;fill-opacity:1;stroke:none">
        <path d="m 0,0 h 3.104 c 0.007,-0.16 0.021,-0.313 0.021,-0.467 0.002,-2.251 -10e-4,-4.502 0.003,-6.753 0,-0.277 0.015,-0.556 0.051,-0.831 0.026,-0.208 0.072,-0.42 0.15,-0.614 0.299,-0.746 1.099,-1.129 2.164,-1.056 0.982,0.068 1.615,0.521 1.795,1.336 0.079,0.359 0.107,0.735 0.108,1.102 0.01,2.278 0.014,4.556 -0.004,6.833 -0.002,0.386 0.106,0.5 0.489,0.485 0.741,-0.03 1.483,-0.007 2.224,-0.01 0.141,0 0.283,-0.011 0.444,-0.018 0.011,-0.134 0.025,-0.237 0.025,-0.34 -0.006,-2.489 0,-4.979 -0.024,-7.467 -0.026,-2.656 -1.769,-3.995 -4.109,-4.317 -1.292,-0.178 -2.569,-0.109 -3.792,0.373 -1.8,0.709 -2.645,2.098 -2.669,3.983 -0.031,2.516 -0.007,5.032 -0.006,7.548 0,0.063 0.015,0.126 0.026,0.213" style="fill:#1e409a;fill-opacity:1;fill-rule:nonzero;stroke:none" id="path11756"></path>
      </g>
      <g id="g11758" transform="matrix(10.987985,0,0,-10.987985,1020.513,71.367008)" style="fill:#1e409a;fill-opacity:1;stroke:none">
        <path d="M 0,0 H -2.844 C -2.871,0.14 -2.862,0.286 -2.924,0.394 -3.083,0.67 -3.215,1.022 -3.462,1.18 -4.174,1.635 -4.956,1.612 -5.687,1.207 -6.318,0.856 -6.318,0.208 -5.672,-0.11 c 0.612,-0.303 1.279,-0.494 1.919,-0.746 0.797,-0.316 1.615,-0.597 2.381,-0.977 2.402,-1.189 2.159,-4.346 0.429,-5.692 -0.971,-0.755 -2.1,-0.98 -3.28,-1.011 -1.245,-0.034 -2.457,0.144 -3.545,0.82 -1.043,0.649 -1.63,1.596 -1.825,2.798 -0.017,0.104 -0.017,0.211 -0.019,0.317 0,0.063 0.011,0.126 0.021,0.214 h 2.774 c 0.605,-1.524 1.844,-2.112 3.305,-1.564 0.123,0.047 0.244,0.102 0.354,0.175 0.521,0.342 0.558,0.878 0.049,1.229 -0.322,0.222 -0.695,0.379 -1.059,0.532 -1.035,0.436 -2.106,0.797 -3.11,1.296 -1.645,0.817 -2.285,2.215 -1.843,3.907 0.333,1.274 1.278,1.971 2.458,2.379 1.485,0.514 2.964,0.468 4.417,-0.139 C -0.814,2.829 0.022,1.568 0,0" style="fill:#1e409a;fill-opacity:1;fill-rule:nonzero;stroke:none" id="path11760"></path>
      </g>
      <g id="g11762" transform="matrix(10.987985,0,0,-10.987985,1114.9307,109.21835)" style="fill:#1e409a;fill-opacity:1;stroke:none">
        <path d="M 0,0 C -0.414,1.196 -0.802,2.323 -1.19,3.45 -1.229,3.449 -1.267,3.448 -1.305,3.448 -1.689,2.313 -2.074,1.18 -2.474,0 Z m -7.415,-4.875 c 0.569,1.489 1.103,2.895 1.643,4.301 0.937,2.443 1.882,4.884 2.809,7.332 0.107,0.284 0.245,0.383 0.544,0.376 C -1.612,7.115 -0.805,7.123 0.002,7.132 0.211,7.133 0.337,7.087 0.42,6.87 1.883,3.055 3.354,-0.755 4.821,-4.567 4.853,-4.65 4.865,-4.741 4.897,-4.874 c -1.045,0 -2.061,-0.006 -3.076,0.011 -0.082,0.001 -0.197,0.151 -0.235,0.255 -0.218,0.61 -0.429,1.222 -0.62,1.841 -0.076,0.246 -0.207,0.322 -0.458,0.319 -1.164,-0.01 -2.329,-0.012 -3.493,0.002 -0.273,0.003 -0.398,-0.087 -0.476,-0.349 -0.181,-0.608 -0.388,-1.208 -0.605,-1.805 -0.04,-0.109 -0.177,-0.261 -0.271,-0.263 -1.003,-0.019 -2.008,-0.012 -3.078,-0.012" style="fill:#1e409a;fill-opacity:1;fill-rule:nonzero;stroke:none" id="path11764"></path>
      </g>
      <g id="g11766" transform="matrix(10.987985,0,0,-10.987985,514.92616,68.265012)" style="fill:#1e409a;fill-opacity:1;stroke:none">
        <path d="m 0,0 c 0,-0.662 0.003,-1.324 -0.001,-1.985 -0.001,-0.195 0.03,-0.342 0.275,-0.333 0.819,0.027 1.644,-0.003 2.456,0.087 1.169,0.13 1.917,0.993 1.961,2.136 C 4.738,1.111 4.17,1.912 2.942,2.125 2.063,2.277 1.153,2.244 0.256,2.292 -0.004,2.307 0,2.125 0,1.946 0.001,1.298 0,0.649 0,0 M 3.605,-3.263 C 4.656,-5.045 5.681,-6.784 6.75,-8.598 6.205,-8.598 5.735,-8.619 5.27,-8.583 5.158,-8.575 5.036,-8.394 4.961,-8.266 4.088,-6.799 3.216,-5.332 2.362,-3.854 2.19,-3.557 2,-3.407 1.642,-3.438 1.26,-3.472 0.873,-3.468 0.491,-3.44 0.116,-3.413 -0.015,-3.529 -0.009,-3.923 0.014,-5.3 0,-6.677 0,-8.054 V -8.565 H -1.283 V 3.347 C -1.209,3.368 -1.16,3.395 -1.11,3.394 0.266,3.369 1.645,3.395 3.016,3.3 4.643,3.187 5.758,2.17 6.016,0.708 6.317,-1.001 5.577,-2.381 3.982,-3.085 3.875,-3.133 3.77,-3.185 3.605,-3.263" style="fill:#1e409a;fill-opacity:1;fill-rule:nonzero;stroke:none" id="path11768"></path>
      </g>
      <g id="g11770" transform="matrix(10.987985,0,0,-10.987985,368.63873,114.79258)" style="fill:#1e409a;fill-opacity:1;stroke:none">
        <path d="M 0,0 H 3.824 C 3.189,2.001 2.572,3.947 1.954,5.894 1.921,5.895 1.889,5.896 1.855,5.898 1.243,3.951 0.63,2.003 0,0 m 6.598,-4.367 c -0.412,0 -0.793,-0.019 -1.171,0.013 C 5.331,-4.345 5.206,-4.192 5.166,-4.08 4.864,-3.233 4.569,-2.383 4.298,-1.527 4.217,-1.269 4.106,-1.168 3.83,-1.171 2.546,-1.185 1.262,-1.183 -0.022,-1.173 -0.277,-1.169 -0.391,-1.26 -0.469,-1.503 -0.741,-2.345 -1.05,-3.176 -1.321,-4.019 -1.41,-4.294 -1.549,-4.397 -1.834,-4.375 c -0.302,0.023 -0.607,0.005 -0.974,0.005 0.214,0.635 0.409,1.227 0.611,1.818 1.109,3.239 2.223,6.476 3.321,9.72 0.119,0.35 0.276,0.538 0.665,0.47 0.128,-0.022 0.266,-0.017 0.396,0 C 2.44,7.669 2.563,7.557 2.643,7.318 3.326,5.289 4.019,3.263 4.709,1.236 c 0.597,-1.752 1.193,-3.504 1.789,-5.257 0.033,-0.097 0.058,-0.198 0.1,-0.346" style="fill:#1e409a;fill-opacity:1;fill-rule:nonzero;stroke:none" id="path11772"></path>
      </g>
      <g id="g11774" transform="matrix(10.987985,0,0,-10.987985,472.06857,30.902571)" style="fill:#1e409a;fill-opacity:1;stroke:none">
        <path d="m 0,0 v -0.517 c 0,-3.655 0,-7.309 0,-10.963 0,-0.509 -0.001,-0.509 -0.524,-0.51 -0.835,0 -0.835,0 -0.835,0.838 0,3.482 -0.003,6.964 10e-4,10.445 C -1.357,0.124 -1.459,-0.016 -0.634,0 -0.439,0.003 -0.245,0 0,0" style="fill:#1e409a;fill-opacity:1;fill-rule:nonzero;stroke:none" id="path11776"></path>
      </g>
    </g>
  </g>
</svg>
