<svg xmlns="http://www.w3.org/2000/svg" width="219.911" height="25.364" viewBox="0 0 219.911 25.364"><g><path d="M16.722 8.362A8.361 8.361 0 1 0 0 8.362v8.64a8.361 8.361 0 1 0 16.722 0z" fill="#ff5800"></path><path d="M177.946.001a8.346 8.346 0 0 0-6.5 3.109 8.355 8.355 0 0 0-14.857 5.253v16.313h3.73V8.363a4.631 4.631 0 1 1 9.262 0v16.313h3.73V8.363a4.631 4.631 0 1 1 9.262 0v16.313h3.738V8.363a8.371 8.371 0 0 0-8.362-8.362" fill="#1b2b45"></path><path d="M143.396 21.634a4.637 4.637 0 0 1-4.631-4.631v-2.1h8.154v-3.727h-8.154v-2.81a4.631 4.631 0 1 1 9.262 0h3.731a8.361 8.361 0 1 0-16.722 0v8.641a8.361 8.361 0 1 0 16.722 0h-3.731a4.636 4.636 0 0 1-4.631 4.631" fill="#1b2b45"></path><path fill="#1b2b45" d="M52.262.644h3.73v24.034h-3.73z"></path><path d="M42.342 14.889a4.628 4.628 0 0 1-9.255 0V8.363a4.631 4.631 0 1 1 9.262 0v6.526zM37.711.001a8.37 8.37 0 0 0-8.36 8.362v16.313h3.729v-2.839a8.33 8.33 0 0 0 9.262 0v2.839h3.731V8.363A8.371 8.371 0 0 0 37.711.001" fill="#1b2b45"></path><path fill="#1b2b45" d="M192.883.644h3.73v24.034h-3.73z"></path><path d="M216.177 14.889a4.628 4.628 0 0 1-9.255 0V8.363a4.631 4.631 0 1 1 9.261 0v6.526zM211.549.001a8.371 8.371 0 0 0-8.361 8.362v16.313h3.731v-2.839a8.328 8.328 0 0 0 9.261 0v2.839h3.731V8.363a8.371 8.371 0 0 0-8.362-8.362" fill="#1b2b45"></path><path d="M100.277 12.985H95.65V8.362a4.628 4.628 0 1 1 4.627 4.623m8.365-4.623A8.371 8.371 0 0 0 100.28.001a8.366 8.366 0 0 0-8.357 8.357v16.318h3.73v-7.963h4.627a8.366 8.366 0 0 0 8.357-8.353z" fill="#1b2b45"></path><path d="M66.296 12.985V8.362a4.628 4.628 0 1 1 4.627 4.623zm9.879 1.865a8.339 8.339 0 0 0 3.1-6.488h.008A8.371 8.371 0 0 0 70.922.001a8.367 8.367 0 0 0-8.357 8.357v16.318h3.73v-7.963h4.627a4.633 4.633 0 0 1 4.628 4.628v3.335h3.729v-3.335a8.346 8.346 0 0 0-3.1-6.493" fill="#1b2b45"></path><path d="M117.211 12.985V8.362a4.628 4.628 0 1 1 4.627 4.623zm9.879 1.865a8.339 8.339 0 0 0 3.105-6.488h.008a8.371 8.371 0 0 0-8.361-8.361 8.367 8.367 0 0 0-8.357 8.357v16.318h3.73v-7.963h4.627a4.633 4.633 0 0 1 4.628 4.628v3.335h3.729v-3.335a8.343 8.343 0 0 0-3.105-6.493" fill="#1b2b45"></path></g></svg>