<svg xmlns="http://www.w3.org/2000/svg" viewBox="0 0 328.43 45.47"><defs><style>.cls-1{fill:#1db898;}</style></defs><title>Air Seoul wordmark</title><g id="레이어_2" data-name="레이어 2"><g id="Layer_1" data-name="Layer 1"><polygon class="cls-1" points="16.38 1.39 0 44.06 11.73 44.06 22.44 14.54 32.83 44.06 44.56 44.06 28.5 1.39 16.38 1.39"/><rect class="cls-1" x="51.33" y="1.39" width="11.18" height="42.67"/><path class="cls-1" d="M104.57,21c2.67-4.83,1.55-11.51-.56-14.22S98.42,1.39,90.88,1.39H74.64V44.06H85.82V27.55L97,44.06h13L96.81,26.56A11.46,11.46,0,0,0,104.57,21ZM92.11,19.5c-2.57,1.48-6.3,1.07-6.3,1.07V9.9a14.36,14.36,0,0,1,5.56.6A4.54,4.54,0,0,1,94.55,15,4.7,4.7,0,0,1,92.11,19.5Z"/><path class="cls-1" d="M141,16.61c-2.19-.74-3.29-2-3.13-3.69a4.13,4.13,0,0,1,3.66-3.47c4.14-.61,8.63,2.6,8.63,2.6l4.21-8.19A24.14,24.14,0,0,0,140.08.29c-8.51.47-13.36,6.33-13.74,13C126,18.73,128.52,23.41,136,26c2.67.92,6.67,1.67,8,3.68,1.74,2.55,0,7-6.29,6-4.3-.7-8.43-4.15-8.43-4.15l-4.7,8.8a26.74,26.74,0,0,0,17.25,4.81C156.35,44,157.9,30.5,155.06,25S145.41,18.1,141,16.61Z"/><polygon class="cls-1" points="176.88 27.26 188.85 27.26 188.85 17.95 176.95 17.95 176.95 10.43 189.56 10.43 189.56 1.39 165.92 1.39 165.92 44.06 190.15 44.06 190.15 34.73 176.88 34.73 176.88 27.26"/><path class="cls-1" d="M221.65,0c-12.92,0-23.3,9.72-23.3,22.6,0,13.43,9.41,22.87,23.3,22.87S245,36,245,22.6C245,9.72,234.58,0,221.65,0Zm0,34.81a12.08,12.08,0,1,1,12-12.3A12,12,0,0,1,221.65,34.81Z"/><path class="cls-1" d="M281.32,26.58c0,7.54-4.3,8.94-7.16,8.94s-7.8-1-7.8-9.15v-25H255.27V26.67c0,13.19,7.44,18.54,19,18.54,11.36,0,18.14-6.37,18.14-18V1.39H281.32Z"/><polygon class="cls-1" points="315.57 34.79 315.57 1.39 304.54 1.39 304.54 44.06 328.43 44.06 328.43 39.3 328.43 34.79 315.57 34.79"/></g></g></svg>