<svg xmlns="http://www.w3.org/2000/svg" width="1073.3776pt" height="224.99998pt" viewBox="0 0 1073.3776 224.99998"><g fill="#3e3a39"><path d="m-19.076 158.678-16.221-44.313-16.412 44.313zm8.313 23.348h-49.851l-10.091 24.914h-31.637l53.206-131.932h27.878L30.787 206.94H-.873ZM98.722 150.769c-.201-.795-1.589-6.332-5.74-10.293-3.153-2.965-7.707-4.945-13.446-4.945-7.328 0-11.668 2.977-14.443 5.74-2.182 2.371-4.15 5.537-4.945 9.498zm26.301 17.004H59.164c0 4.755 1.779 11.087 5.336 15.036 4.34 4.755 10.281 5.537 14.633 5.537 4.162 0 8.502-.782 11.478-2.56.392-.202 3.76-2.384 6.13-7.33l26.907 2.776c-3.961 12.462-11.87 18.984-17.017 22.15-8.502 5.147-18 6.534-27.89 6.534-13.245 0-24.925-2.372-35.206-12.664-7.72-7.708-13.257-19.388-13.257-34.02 0-12.665 4.554-25.72 13.447-34.816 10.684-10.684 23.941-12.664 33.83-12.664 9.89 0 24.132 1.779 35.005 13.257 10.495 11.076 12.463 24.926 12.463 35.8zM136.624 118.722h28.482v13.85c2.574-4.945 6.522-9.498 11.076-12.273 4.755-2.965 9.688-3.76 15.237-3.76 3.558 0 6.13.404 9.285 1.4l-1.577 26.704c-3.76-1.98-7.91-3.178-12.854-3.178-6.143 0-10.684 2.182-14.242 5.941-6.332 6.723-6.925 16.222-6.925 23.728v35.81h-28.482zM237.896 146.218c-4.15 4.162-6.521 9.498-6.521 16.613 0 8.11 3.154 13.257 6.521 16.613 3.558 3.569 8.704 6.332 16.222 6.332 6.332 0 11.668-2.17 15.83-6.332 4.15-4.15 6.522-9.499 6.522-16.613 0-7.115-2.371-12.451-6.522-16.613-4.162-4.162-9.498-6.332-16.032-6.332-6.521 0-11.858 2.17-16.02 6.332m54.594 49.447c-7.909 7.91-21.356 14.254-38.574 14.254-17.205 0-30.652-6.344-38.562-14.254-8.905-8.893-13.269-21.557-13.269-32.834 0-11.265 4.364-23.93 13.27-32.835 7.909-7.91 21.356-14.241 38.561-14.241 17.218 0 30.665 6.332 38.574 14.241 8.906 8.905 13.257 21.57 13.257 32.835 0 11.277-4.351 23.94-13.257 32.834M454.86 130.046l45.072-54.962h37.163l-53.373 62.468 57.535 69.392h-39.155l-47.242-58.519v58.52h-30.44V75.083h30.44z" style="fill:#1c2c4c;fill-opacity:1;stroke-width:11.8579" transform="matrix(1.66777 0 0 1.66777 170.684 -125.097)"/><path d="M317.335 206.949h92.622v-45.855h-92.622z" style="fill:#fcb44c;fill-opacity:1;stroke-width:11.8579" transform="matrix(1.66777 0 0 1.66777 170.684 -125.097)"/></g></svg>