<?xml version="1.0" encoding="utf-8"?>
<!-- Generator: Adobe Illustrator 16.0.0, SVG Export Plug-In . SVG Version: 6.00 Build 0)  -->
<!DOCTYPE svg PUBLIC "-//W3C//DTD SVG 1.1//EN" "http://www.w3.org/Graphics/SVG/1.1/DTD/svg11.dtd">
<svg version="1.1" id="Layer_1" xmlns="http://www.w3.org/2000/svg" xmlns:xlink="http://www.w3.org/1999/xlink" x="0px" y="0px"
	 width="400px" height="150px" viewBox="0 0 400 150" enable-background="new 0 0 400 150" xml:space="preserve">
<g>
	<g>
		<path fill="#D12149" d="M46.289,46.965l4.344-9.122H13.117c0,0,0.888,1.869,2.217,4.666c0.879,2.025,1.27,3.321,0.745,6.479
			c-0.015,0.088-5.566,31.614-6.001,34.008c-0.444,2.497,1.062,3.674,3.028,3.674c1.879,0,31.573,0,31.573,0l-2.059-9.144h-20.24
			l1.961-11.142h18.672l1.614-9.197H25.968l1.795-10.224H46.289L46.289,46.965z"/>
		<path fill="#D12149" d="M344.992,46.965l4.348-9.122h-35.735c0,0,0.885,1.869,2.221,4.666c0.875,2.025,1.268,3.321,0.744,6.479
			c-0.015,0.088-5.576,31.614-6.007,34.008c-0.447,2.497,1.068,3.674,3.028,3.674c1.878,0,29.796,0,29.796,0l-2.058-9.144H322.87
			l1.956-11.142h16.894l1.618-9.197h-16.886l1.798-10.224H344.992L344.992,46.965z"/>
		<path fill="#D12149" d="M113.907,50.178c0.83-2.628,3.7-3.212,7.905-3.212h7.584l3.322-9.122c0,0-11.781,0-12.968,0
			c-4.702,0-15.447-0.444-17.753,10.026c-3.193,14.576,15.716,18.789,14.764,25.42c-0.568,3.894-4.282,4.238-9.41,4.238
			c-2.863,0-11.325,0-11.325,0l2.124,9.144h12.826c6.643,0,15.914-1.211,18.094-9.476C133.005,62.329,111.789,57.482,113.907,50.178
			L113.907,50.178z"/>
		<path fill="#D12149" d="M255.486,52.25c0.622-7.994-4.369-14.406-16.889-14.406h-18.304l2.199,4.666
			c0.882,2.025,1.271,3.32,0.749,6.47l-6.642,37.692h10.991l3.222-18.298c0,0,0.809-0.111,3.064,0.009
			c3.025,0.171,3.518,2.304,9.617,18.289h12.026c-6.468-16.149-7.628-19.054-9.648-21.068
			C250.788,63.628,254.976,58.855,255.486,52.25L255.486,52.25z M244.453,53.195c-0.702,3.997-4.189,6.975-8.533,6.975h-3.661
			l2.325-13.205h4.224C242.883,46.965,245.073,49.642,244.453,53.195L244.453,53.195z"/>
		<polygon fill="#D12149" points="134.907,37.843 138.226,46.965 149.602,46.965 142.6,86.671 154.081,86.671 161.081,46.965 
			173.839,46.965 177.151,37.843 134.907,37.843 		"/>
		<polygon fill="#D12149" points="350.306,37.843 353.622,46.965 363.208,46.965 356.212,86.671 367.693,86.671 374.69,46.965 
			386.683,46.965 390,37.843 350.306,37.843 		"/>
		<path fill="#D12149" d="M290.068,27.812c-0.406-0.031-1.109-0.092-1.639-0.143c-13.914-1.464-17.467-2.528-18.451-20.291
			c0,0-0.068-0.921-0.822-0.921c-0.762,0-0.825,0.921-0.825,0.921c-0.98,17.763-4.536,18.827-18.451,20.291
			c-0.526,0.051-1.228,0.112-1.639,0.143c-0.434,0.034-0.903,0.213-0.903,0.533c0,0.352,0.44,0.528,0.903,0.585
			c15.354,1.903,18.788,3.216,20.124,25.363c0.015,0.492,0.243,0.987,0.791,0.987c0.544,0,0.771-0.496,0.792-0.987
			c1.332-22.146,4.766-23.46,20.12-25.363c0.458-0.057,0.908-0.233,0.908-0.585C290.977,28.024,290.5,27.845,290.068,27.812
			L290.068,27.812z"/>
		<path fill="#D12149" d="M291.062,37.843l2.213,4.666c0.877,2.025,1.271,3.321,0.748,6.479l-3.266,18.634
			c-3.167,18.137-12.445,18.149-18.183,18.149c-1.062,1.747,10.993,4.449,18.812,0.732c6.079-2.88,9.092-8.055,10.608-16.881
			c0.417-2.417,5.579-31.78,5.579-31.78H291.062L291.062,37.843z"/>
		<path fill="#D12149" d="M202.035,41.516c-0.501-2.108-2.132-3.673-4.52-3.673c-2.162,0-14.111,0-14.111,0l2.308,4.879
			c0.964,2.091,0.845,3.501-0.441,5.924l-20.062,38.025h11.598l5.896-11.624h16.243l2.205,11.624h11.395
			C212.544,86.671,202.531,43.638,202.035,41.516L202.035,41.516z M187.287,66l7.241-14.301L197.237,66H187.287L187.287,66z"/>
		<path fill="#D12149" d="M83.597,41.516c-0.504-2.108-2.131-3.673-4.525-3.673c-2.156,0-14.109,0-14.109,0l2.312,4.879
			c0.962,2.091,0.843,3.501-0.441,5.924L46.767,86.671h11.6l5.894-11.624H80.5l2.206,11.624H94.1
			C94.1,86.671,84.096,43.638,83.597,41.516L83.597,41.516z M68.844,66L76.086,51.7L78.794,66H68.844L68.844,66z"/>
	</g>
	<path fill="#4C5C65" d="M124.542,111.411c5.149,0,9.25,4.17,9.25,9.472c0,5.268-4.101,9.474-9.25,9.474
		c-5.148,0-9.251-4.206-9.251-9.474C115.292,115.581,119.395,111.411,124.542,111.411L124.542,111.411z M119.613,120.883
		c0,3.221,2.089,6.253,4.892,6.253c2.812,0,4.935-2.916,4.935-6.175c0-3.259-2.089-6.292-4.896-6.292
		C121.842,114.669,119.613,117.587,119.613,120.883L119.613,120.883z"/>
	<path fill="#4C5C65" d="M147.691,135.774h32.107v3.334h-32.107V135.774L147.691,135.774z M161.474,113.957
		c0-2.789-0.881-3.455-0.881-3.455h5.67v5.987c0,7.163,5.761,10.342,11.556,10.342c0.287,0,0.252,0.153,0.111,0.304l-2.378,2.919
		c-3.817,0-9.322-2.201-11.412-6.367c-0.252-0.455-0.398-0.455-0.648,0c-2.123,4.166-7.667,6.328-11.41,6.328l-2.378-2.919
		c-0.141-0.152-0.182-0.302,0.11-0.302c5.651,0,11.66-3.107,11.66-10.99V113.957L161.474,113.957z M161.474,113.957
		c0-2.789-0.881-3.455-0.881-3.455h5.67v5.987c0,7.163,5.761,10.342,11.556,10.342c0.287,0,0.252,0.153,0.111,0.304l-2.378,2.919
		c-3.817,0-9.322-2.201-11.412-6.367c-0.252-0.455-0.398-0.455-0.648,0c-2.123,4.166-7.667,6.328-11.41,6.328l-2.378-2.919
		c-0.141-0.152-0.182-0.302,0.11-0.302c5.651,0,11.66-3.107,11.66-10.99V113.957L161.474,113.957z"/>
	<path fill="#4C5C65" d="M187.295,128.499c0,0.495,0.287,0.759,0.68,0.759h11.38c2.915,0,4.388-0.566,5.397-1.364v-15.802
		c0-2.801-0.882-3.445-0.882-3.445h5.093v11.139h4.57v3.334h-4.57v19.703h-4.211v-11.559c-1.477,1.064-3.205,1.329-6.806,1.329
		h-10.691c-2.807,0-4.21-1.407-4.21-4.586v-13.565c0-2.579-0.882-3.373-0.882-3.373h16.935v3.334h-11.803v5.647h11.086v3.296
		h-11.086V128.499L187.295,128.499z"/>
	<path fill="#4C5C65" d="M221.606,115.655h-3.743v-3.296h7.773v-0.896c0-2.653-0.881-3.388-0.881-3.388h5.381v4.284h7.845v3.296
		h-3.812c0.79,1.211,1.293,2.649,1.293,4.208c0,4.127-3.422,7.502-7.594,7.502c-4.144,0-7.56-3.375-7.56-7.502
		C220.31,118.304,220.777,116.867,221.606,115.655L221.606,115.655z M224.594,119.863c0,2.271,1.546,4.202,3.312,4.202
		c1.727,0,3.31-1.892,3.31-4.127c0-2.275-1.33-4.21-3.273-4.21C226.217,115.728,224.594,117.623,224.594,119.863L224.594,119.863z
		 M236.253,127.816c4.574,0,8.284,3.525,8.284,7.882c0,4.321-3.71,7.845-8.284,7.845c-4.532,0-8.239-3.524-8.239-7.845
		C228.014,131.341,231.721,127.816,236.253,127.816L236.253,127.816z M236.253,131.228c-2.083,0-3.887,1.935-3.887,4.471
		c0,2.501,1.804,4.433,3.887,4.433c2.127,0,3.96-1.932,3.96-4.433C240.213,133.162,238.38,131.228,236.253,131.228L236.253,131.228z
		 M250.654,115.693v3.711h-4.57v8.603h-4.25v-15.915c0-2.73-0.882-3.445-0.882-3.445h5.132v7.047H250.654L250.654,115.693z"/>
	<path fill="#4C5C65" d="M284.786,123.044v3.37h-31.023v-3.37h11.842v-3.373c0-2.47-0.884-3.221-0.884-3.221h5.271v6.594H284.786
		L284.786,123.044z M276.977,113.989c0-0.493-0.144-0.684-0.717-0.684h-18.971v-3.373h23.681c0.253,0,0.328,0.154,0.328,0.38v5.113
		c0,3.563-0.47,4.512-1.511,5.875h-4.175c1.15-1.55,1.364-3.107,1.364-6.289V113.989L276.977,113.989z M269.272,127.854
		c4.536,0,8.245,3.563,8.245,7.883c0,4.281-3.709,7.805-8.245,7.805c-4.532,0-8.239-3.524-8.239-7.805
		C261.033,131.418,264.74,127.854,269.272,127.854L269.272,127.854z M269.272,131.264c-2.123,0-3.993,1.97-3.993,4.474
		c0,2.461,1.87,4.432,3.993,4.432c2.161,0,3.997-1.971,3.997-4.432C273.27,133.234,271.434,131.264,269.272,131.264L269.272,131.264
		z"/>
	<path fill="#4C5C65" d="M138.598,142.823v-30.725c0-2.857-0.882-3.452-0.882-3.452h5.078v34.176H138.598L138.598,142.823z"/>
</g>
</svg>
