<svg xmlns:xlink="http://www.w3.org/1999/xlink" xmlns="http://www.w3.org/2000/svg" width="169.424" height="25" viewBox="0 0 169.424 25">
  <g transform="translate(17.132)">
    <path d="M134.934,27.7V43.883H123.153a.819.819,0,0,1-.82-.82v-3.97H117.5v7.12a2.459,2.459,0,0,0,2.46,2.46h19.808V27.7Z" transform="translate(-95.103 -24.852)" fill="#bed600"/>
    <rect width="4.833" height="20.973" transform="translate(50.879 2.848)" fill="#bed600"/>
    <path d="M228.965,27.7H209.2V48.673h4.833V32.49h11.781a.819.819,0,0,1,.82.82V48.673h4.833V30.16a2.5,2.5,0,0,0-2.5-2.46" transform="translate(-147.23 -24.852)" fill="#bed600"/>
    <path d="M69.593,33.528l-.69-.518-2.071-1.424v-.173h0v-.6a15.711,15.711,0,0,0-.3-3.193c0-.086-.043-.216-.043-.3-.043-.086-.043-.216-.086-.345a2.619,2.619,0,0,1,.432-.3,35.047,35.047,0,0,1,8.847-4.79c.086-.043.216-.086.3-.129.043,0,.086-.043.129-.043a11.611,11.611,0,0,1,3.237-.6h.129a2.47,2.47,0,0,1,2.46,2.071.259.259,0,0,0,.043.173,19.169,19.169,0,0,1,.173,2.719,22.305,22.305,0,0,1-.6,5.135v.086a7.587,7.587,0,0,1-3.021,4.4,7.984,7.984,0,0,1-3.884,1.424Z" transform="translate(-66.055 -21.1)" fill="#bed600"/>
    <path d="M67.326,59.057l-1.683-1.122-.043-.043.043-.345.259-1.942.043-.173.388-2.632.906.388,1.9.777.777.3,3.97,1.64a6.25,6.25,0,0,1,1.6,2.33.151.151,0,0,0,.043.086c0,.043,0,.043.043.086.043.086.043.173.086.259a1.334,1.334,0,0,1,.086.345,3.954,3.954,0,0,1,.043,1.424A3.255,3.255,0,0,1,75.4,61.69a4.251,4.251,0,0,1-5.222,2.2h-.043c-.043,0-.086-.043-.129-.043a.042.042,0,0,1-.043-.043c-.216-.086-.432-.173-.6-.259a6.847,6.847,0,0,1-3.28-3.841l1.251.216.475.086v-.647Z" transform="translate(-65.6 -39.12)" fill="#bed600"/>
  </g>
  <g>
    <rect width="4.833" height="20.973" transform="translate(136.109 2.848)" fill="#bed600"/>
    <path d="M277.66,27.7a2.459,2.459,0,0,0-2.46,2.46V48.673h4.833V42.114h12.644v6.559h4.833V27.7Zm2.374,5.61a.819.819,0,0,1,.82-.82h11.781v4.833H279.99V33.31Z" transform="translate(-167.616 -24.852)" fill="#bed600"/>
    <path d="M386.708,27.7H366.9V48.673h4.79V32.49h11.824a.819.819,0,0,1,.82.82v3.97h4.833V30.16a2.487,2.487,0,0,0-2.46-2.46" transform="translate(-219.743 -24.852)" fill="#bed600"/>
    <path d="M38.458,33.528l.69-.518,2.071-1.424v-.173h0v-.6a15.71,15.71,0,0,1,.3-3.193c0-.086.043-.216.043-.3.043-.086.043-.216.086-.345a2.62,2.62,0,0,0-.432-.3,35.047,35.047,0,0,0-8.847-4.79c-.086-.043-.216-.086-.3-.129-.043,0-.086-.043-.129-.043a11.611,11.611,0,0,0-3.237-.6h-.129a2.47,2.47,0,0,0-2.46,2.071.259.259,0,0,1-.043.173,19.171,19.171,0,0,0-.173,2.719,22.305,22.305,0,0,0,.6,5.135v.086a7.587,7.587,0,0,0,3.021,4.4,7.984,7.984,0,0,0,3.884,1.424Z" transform="translate(-25.9 -21.1)" fill="#bed600"/>
    <path d="M48.01,59.057l1.683-1.122.043-.043-.043-.345-.259-1.942-.043-.173L49,52.8l-.906.388-1.9.777-.777.3-3.884,1.64a6.25,6.25,0,0,0-1.6,2.33.151.151,0,0,1-.043.086c0,.043,0,.043-.043.086-.043.086-.043.173-.086.259a1.334,1.334,0,0,0-.086.345,3.954,3.954,0,0,0-.043,1.424,3.255,3.255,0,0,0,.388,1.251,4.251,4.251,0,0,0,5.222,2.2h.043c.043,0,.086-.043.129-.043a.042.042,0,0,0,.043-.043c.216-.086.432-.173.6-.259a6.847,6.847,0,0,0,3.28-3.841L48.1,59.92l-.475.086v-.647Z" transform="translate(-33.683 -39.12)" fill="#bed600"/>
  </g>
</svg>