<?xml version="1.0" encoding="UTF-8" standalone="no"?>
<!-- Created with Inkscape (http://www.inkscape.org/) -->

<svg
   xmlns:dc="http://purl.org/dc/elements/1.1/"
   xmlns:cc="http://creativecommons.org/ns#"
   xmlns:rdf="http://www.w3.org/1999/02/22-rdf-syntax-ns#"
   xmlns:svg="http://www.w3.org/2000/svg"
   xmlns="http://www.w3.org/2000/svg"
   xmlns:sodipodi="http://sodipodi.sourceforge.net/DTD/sodipodi-0.dtd"
   xmlns:inkscape="http://www.inkscape.org/namespaces/inkscape"
   width="106.83177"
   height="45.138611"
   viewBox="0 0 28.265909 11.942924"
   version="1.1"
   id="svg16353"
   inkscape:version="0.92.0 r15299"
   sodipodi:docname="tway.svg">
  <defs
     id="defs16347" />
  <sodipodi:namedview
     id="base"
     pagecolor="#ffffff"
     bordercolor="#666666"
     borderopacity="1.0"
     inkscape:pageopacity="0.0"
     inkscape:pageshadow="2"
     inkscape:zoom="5.0665"
     inkscape:cx="81.105564"
     inkscape:cy="-8.4618067"
     inkscape:document-units="mm"
     inkscape:current-layer="layer1"
     showgrid="false"
     fit-margin-top="0"
     fit-margin-left="0"
     fit-margin-right="0"
     fit-margin-bottom="0"
     units="px"
     inkscape:window-width="1280"
     inkscape:window-height="744"
     inkscape:window-x="-4"
     inkscape:window-y="-4"
     inkscape:window-maximized="1" />
  <metadata
     id="metadata16350">
    <rdf:RDF>
      <cc:Work
         rdf:about="">
        <dc:format>image/svg+xml</dc:format>
        <dc:type
           rdf:resource="http://purl.org/dc/dcmitype/StillImage" />
        <dc:title></dc:title>
      </cc:Work>
    </rdf:RDF>
  </metadata>
  <g
     inkscape:label="Layer 1"
     inkscape:groupmode="layer"
     id="layer1"
     transform="translate(-6.4100533,-205.47362)">
    <g
       id="g16400"
       transform="translate(0.1322923,-0.1322875)">
      <path
         d="m 22.199981,208.35933 h -0.921456 c -0.195086,0 -0.513291,0.12065 -0.585258,0.5013 -0.199672,1.02094 -0.32385,2.14065 -0.464961,3.13972 -0.129469,-0.95109 -0.340078,-2.22462 -0.529872,-3.20463 -0.05539,-0.23319 -0.271992,-0.43639 -0.589139,-0.43639 H 18.17267 c -0.317147,0 -0.534106,0.2032 -0.589139,0.43639 -0.232833,0.98636 -0.412044,2.24648 -0.531636,3.19405 -0.140053,-0.99625 -0.264231,-2.11173 -0.463197,-3.12914 -0.07197,-0.38065 -0.38982,-0.5013 -0.585259,-0.5013 h -0.921455 c -0.263525,0 -0.6604,0.19579 -0.615597,0.66922 0.181327,1.63089 0.643114,3.75109 1.175455,5.6776 0.08361,0.3556 0.369359,0.49037 0.609247,0.49037 l 1.21285,-3.6e-4 c 0.372181,0 0.56762,-0.29809 0.603603,-0.49494 l 0.561622,-2.56293 h 0.02364 l 0.561622,2.56293 c 0.03598,0.19685 0.231422,0.49494 0.603602,0.49494 l 1.212498,3.6e-4 c 0.239889,0 0.525639,-0.13477 0.609247,-0.49037 0.532694,-1.92651 0.99448,-4.04671 1.175808,-5.6776 0.0448,-0.47343 -0.352072,-0.66922 -0.615597,-0.66922"
         style="fill:#c82f26;fill-opacity:1;fill-rule:nonzero;stroke:none;stroke-width:0.35277778"
         id="path13362"
         inkscape:connector-curvature="0" />
      <path
         d="m 7.2944672,206.96657 c 0,-0.34008 0.2755194,-0.6156 0.6155972,-0.6156 h 1.12395 c 0.3400778,0 0.6155972,0.27552 0.6155972,0.6156 v 1.39277 h 0.5944304 c 0.232833,0 0.421922,0.18909 0.421922,0.42227 v 0.68474 c 0,0.23284 -0.189089,0.42157 -0.421922,0.42157 H 9.6496116 v 3.22298 c 0,0.39158 0.2465917,0.53023 0.5944304,0.53023 0.232833,0 0.421922,0.18908 0.421922,0.42227 v 0.71155 c 0,0.23284 -0.189089,0.42157 -0.421922,0.42157 -0.3287887,0.0243 -0.6692193,0.0367 -0.9186332,0.0367 -1.3200944,0 -2.0309416,-0.80786 -2.0309416,-2.32375 v -3.02154 H 6.8319755 c -0.2328333,0 -0.4219222,-0.18873 -0.4219222,-0.42157 v -0.68474 c 0,-0.23318 0.1890889,-0.42227 0.4219222,-0.42227 h 0.4624917"
         style="fill:#c82f26;fill-opacity:1;fill-rule:nonzero;stroke:none;stroke-width:0.35277778"
         id="path13366"
         inkscape:connector-curvature="0" />
      <path
         d="m 32.315875,208.84794 c 0.05856,-0.27905 0.305858,-0.4886 0.602192,-0.4886 h 0.877711 c 0.340078,0 0.615597,0.27552 0.615597,0.61525 0,0.0335 -0.0028,0.0667 -0.0078,0.0984 -0.31115,1.90394 -0.990953,4.25803 -1.610078,6.28262 -0.472017,1.54199 -1.087614,2.06093 -2.25178,2.06093 -0.285045,0 -0.595842,-0.005 -0.839964,-0.018 -0.233186,0 -0.42157,-0.18874 -0.42157,-0.42192 v -0.73025 c 0,-0.23319 0.188736,-0.42193 0.421923,-0.42193 l -0.0011,-3.5e-4 0.05927,7.1e-4 c 0.53975,0 0.722136,-0.37889 0.719666,-0.51788 -0.0032,-0.22613 -0.04763,-0.32844 -0.0956,-0.50553 -0.430389,-1.37866 -0.94227,-3.57258 -1.382889,-5.69913 -0.0085,-0.0413 -0.01341,-0.0836 -0.01341,-0.1277 0,-0.33973 0.27552,-0.61525 0.615245,-0.61525 h 0.898525 c 0.28575,0 0.526344,0.19509 0.595489,0.45897 0.231775,0.85195 0.472016,2.46274 0.661811,3.45228 h 0.02399 c 0.164394,-1.10525 0.359833,-2.63208 0.532694,-3.42265"
         style="fill:#c82f26;fill-opacity:1;fill-rule:nonzero;stroke:none;stroke-width:0.35277778"
         id="path13370"
         inkscape:connector-curvature="0" />
      <path
         d="m 24.847269,215.27837 c -1.138414,0 -1.874308,-0.76341 -1.874308,-1.94486 0,-1.21709 0.845255,-2.00343 2.659944,-2.47439 0.412045,-0.0981 0.587375,-0.29668 0.587375,-0.66463 0,-0.26 -0.183797,-0.44838 -0.437444,-0.44838 -0.228248,0 -0.394053,0.11818 -0.443089,0.31644 -0.08678,0.35348 -0.325614,0.51823 -0.751417,0.51823 h -0.596194 c -0.42545,0 -0.690034,-0.25823 -0.690034,-0.67416 0,-0.0705 0.01058,-0.13899 0.0314,-0.20355 0.384175,-1.3081 1.699683,-1.50354 2.450041,-1.50354 0.860072,0 1.45415,0.13935 1.86937,0.43886 0.48648,0.35101 0.739069,0.93274 0.772583,1.7787 0.04304,1.00507 0.07655,3.00602 0.01305,4.10916 0,0.36759 -0.309386,0.66992 -0.689681,0.66992 h -0.778228 c -0.353836,0 -0.631472,-0.25752 -0.685094,-0.63041 -0.295981,0.45544 -0.809978,0.71261 -1.438275,0.71261 m 1.413933,-3.1309 c -0.09349,0.0765 -0.219075,0.13934 -0.34925,0.20496 -0.307975,0.15417 -0.656872,0.32914 -0.70238,0.7299 -0.02046,0.17568 0.02081,0.32526 0.118886,0.4325 0.08467,0.0928 0.210255,0.14817 0.334786,0.14817 0.359128,0 0.597958,-0.16334 0.597958,-0.9592"
         style="fill:#c82f26;fill-opacity:1;fill-rule:nonzero;stroke:none;stroke-width:0.35277778"
         id="path13374"
         inkscape:connector-curvature="0" />
      <path
         d="m 13.586973,206.54289 -0.02822,-0.0575 v -3.6e-4 c -0.229659,-0.44344 -0.69215,-0.74683 -1.226256,-0.74683 -0.762,0 -1.380066,0.61772 -1.380066,1.38007 0,0.44133 0.207433,0.83397 0.529872,1.08656 v 3.5e-4 c 0.393347,0.30515 0.796219,0.88053 -0.154164,1.77482 -0.179211,0.18733 -0.05115,0.33408 0.06914,0.41205 0.290689,0.18873 0.483659,0.16086 0.793398,0 0.797277,-0.41416 2.240138,-2.09092 1.396294,-3.84916"
         style="fill:#79a23d;fill-opacity:1;fill-rule:nonzero;stroke:none;stroke-width:0.35277778"
         id="path13378"
         inkscape:connector-curvature="0" />
    </g>
  </g>
</svg>
